<?xml version="1.0" encoding="UTF-8" standalone="no"?>
<!-- Created with Inkscape (http://www.inkscape.org/) -->

<svg
   xmlns:dc="http://purl.org/dc/elements/1.1/"
   xmlns:cc="http://creativecommons.org/ns#"
   xmlns:rdf="http://www.w3.org/1999/02/22-rdf-syntax-ns#"
   xmlns:svg="http://www.w3.org/2000/svg"
   xmlns="http://www.w3.org/2000/svg"
   xmlns:sodipodi="http://sodipodi.sourceforge.net/DTD/sodipodi-0.dtd"
   xmlns:inkscape="http://www.inkscape.org/namespaces/inkscape"
   width="32"
   height="32"
   viewBox="0 0 8.4666666 8.4666666"
   version="1.1"
   id="svg5952"
   inkscape:version="0.92.4 (5da689c313, 2019-01-14)"
   sodipodi:docname="Icon-Mail-Versand.svg">
  <defs
     id="defs5946" />
  <sodipodi:namedview
     id="base"
     pagecolor="#ffffff"
     bordercolor="#666666"
     borderopacity="1.0"
     inkscape:pageopacity="0.0"
     inkscape:pageshadow="2"
     inkscape:zoom="7.9195959"
     inkscape:cx="11.234997"
     inkscape:cy="2.4300577"
     inkscape:document-units="mm"
     inkscape:current-layer="g872"
     showgrid="false"
     inkscape:window-width="1920"
     inkscape:window-height="986"
     inkscape:window-x="-11"
     inkscape:window-y="-11"
     inkscape:window-maximized="1"
     units="px" />
  <metadata
     id="metadata5949">
    <rdf:RDF>
      <cc:Work
         rdf:about="">
        <dc:format>image/svg+xml</dc:format>
        <dc:type
           rdf:resource="http://purl.org/dc/dcmitype/StillImage" />
        <dc:title></dc:title>
        <cc:license
           rdf:resource="http://creativecommons.org/licenses/by/4.0/" />
      </cc:Work>
      <cc:License
         rdf:about="http://creativecommons.org/licenses/by/4.0/">
        <cc:permits
           rdf:resource="http://creativecommons.org/ns#Reproduction" />
        <cc:permits
           rdf:resource="http://creativecommons.org/ns#Distribution" />
        <cc:requires
           rdf:resource="http://creativecommons.org/ns#Notice" />
        <cc:requires
           rdf:resource="http://creativecommons.org/ns#Attribution" />
        <cc:permits
           rdf:resource="http://creativecommons.org/ns#DerivativeWorks" />
      </cc:License>
    </rdf:RDF>
  </metadata>
  <g
     inkscape:label="Ebene 1"
     inkscape:groupmode="layer"
     id="layer1"
     transform="translate(0,-288.53333)">
    <g
       id="g872"
       transform="matrix(1.1561267,0,0,1.1613744,-7.6412182,-41.737793)"
       style="stroke-width:0.86300075">
      <g
         transform="matrix(0.29535266,0,0,0.29401811,-102.22904,31.287255)"
         id="g6"
         style="stroke-width:0.63640934" />
      <g
         id="g822"
         transform="matrix(0.08617045,0,0,0.08617045,6.0286329,266.42589)"
         style="stroke-width:10.0150423">
        <path
           inkscape:connector-curvature="0"
           d="m 64.57353,249.68353 -2.478933,2.03079 19.921255,15.7897 1.944641,-2.45385 z m -14.657618,0.0946 -19.564118,15.82246 1.96891,2.43363 20.100836,-16.25523 z m -17.690136,-16.11897 -1.699876,2.10039 26.745546,21.6291 26.595738,-21.08031 -1.678475,-2.1172 -24.900447,19.73661 z m 0.275255,-0.50913 c -2.919025,0 -5.316871,2.38415 -5.316871,5.29982 v 24.94026 c 0,2.91565 2.397846,5.2998 5.316871,5.2998 h 49.311731 c 2.919026,0 5.316523,-2.38415 5.316523,-5.2998 v -24.94026 c 0,-2.91567 -2.397497,-5.29982 -5.316523,-5.29982 -16.437243,0 -32.874487,0 -49.311731,0 z m 0,2.70111 c 16.437244,0 32.874488,0 49.311731,0 1.475512,0 2.614007,1.13968 2.614007,2.59871 v 24.94026 c 0,1.45901 -1.138495,2.59731 -2.614007,2.59731 H 32.501031 c -1.475512,0 -2.615754,-1.1383 -2.615754,-2.59731 v -24.94026 c 0,-1.45903 1.140242,-2.59871 2.615754,-2.59871 z"
           style="color:#000000;font-style:normal;font-variant:normal;font-weight:normal;font-stretch:normal;font-size:medium;line-height:normal;font-family:sans-serif;font-variant-ligatures:normal;font-variant-position:normal;font-variant-caps:normal;font-variant-numeric:normal;font-variant-alternates:normal;font-feature-settings:normal;text-indent:0;text-align:start;text-decoration:none;text-decoration-line:none;text-decoration-style:solid;text-decoration-color:#000000;letter-spacing:normal;word-spacing:normal;text-transform:none;writing-mode:lr-tb;direction:ltr;text-orientation:mixed;dominant-baseline:auto;baseline-shift:baseline;text-anchor:start;white-space:normal;shape-padding:0;clip-rule:nonzero;display:inline;overflow:visible;visibility:visible;opacity:1;isolation:auto;mix-blend-mode:normal;color-interpolation:sRGB;color-interpolation-filters:linearRGB;solid-color:#000000;solid-opacity:1;vector-effect:none;fill:#000000;fill-opacity:1;fill-rule:nonzero;stroke:none;stroke-width:40.06016922;stroke-linecap:butt;stroke-linejoin:miter;stroke-miterlimit:4;stroke-dasharray:none;stroke-dashoffset:0;stroke-opacity:1;color-rendering:auto;image-rendering:auto;shape-rendering:auto;text-rendering:auto;enable-background:accumulate"
           id="path847-5" />
        <path
           style="opacity:1;fill:#000000;fill-opacity:1;stroke:none;stroke-width:40.06016922;stroke-linecap:butt;stroke-miterlimit:4;stroke-dasharray:none;stroke-dashoffset:0;stroke-opacity:1"
           d="m 12.008553,243.66499 h 23.856463 c 0.863,0 1.557762,0.60401 1.557762,1.35429 v 0.38326 c 0,0.75027 -0.694762,1.35428 -1.557762,1.35428 H 12.008553 c -0.863,0 -1.557762,-0.60401 -1.557762,-1.35428 v -0.38326 c 0,-0.75028 0.694762,-1.35429 1.557762,-1.35429 z"
           id="rect966"
           inkscape:connector-curvature="0" />
        <path
           style="opacity:1;fill:#000000;fill-opacity:1;stroke:none;stroke-width:40.06016922;stroke-linecap:butt;stroke-miterlimit:4;stroke-dasharray:none;stroke-dashoffset:0;stroke-opacity:1"
           d="m 16.667352,249.03503 h 23.856462 c 0.863,0 1.557762,0.60401 1.557762,1.35429 v 0.38326 c 0,0.75028 -0.694762,1.35429 -1.557762,1.35429 H 16.667352 c -0.863001,0 -1.557762,-0.60401 -1.557762,-1.35429 v -0.38326 c 0,-0.75028 0.694761,-1.35429 1.557762,-1.35429 z"
           id="rect966-8"
           inkscape:connector-curvature="0" />
        <path
           style="opacity:1;fill:#000000;fill-opacity:1;stroke:none;stroke-width:40.06016922;stroke-linecap:butt;stroke-miterlimit:4;stroke-dasharray:none;stroke-dashoffset:0;stroke-opacity:1"
           d="M 9.9652213,254.16096 H 33.821684 c 0.863,0 1.557762,0.60402 1.557762,1.35429 v 0.38326 c 0,0.75028 -0.694762,1.35429 -1.557762,1.35429 H 9.9652213 c -0.8630002,0 -1.557762,-0.60401 -1.557762,-1.35429 v -0.38326 c 0,-0.75027 0.6947618,-1.35429 1.557762,-1.35429 z"
           id="rect966-8-0"
           inkscape:connector-curvature="0" />
      </g>
    </g>
  </g>
</svg>
